<svg xmlns="http://www.w3.org/2000/svg">
  <symbol id="pause" viewBox="0 0 32 32">
    <title>pause</title>
    <path
       d="M 16 1 A 15 15 0 0 0 1 16 A 15 15 0 0 0 16 31 A 15 15 0 0 0 31 16
       A 15 15 0 0 0 16 1 z M 16 8 A 8 8 0 0 1 24 16 A 8 8 0 0 1 16 24
       A 8 8 0 0 1 8 16 A 8 8 0 0 1 16 8 z M 14 11 C 13.169 11 12.5 11.776344 12.5 12.740234
       L 12.5 19.259766 C 12.5 20.223656 13.169 21 14 21 C 14.831 21 15.5 20.223656 15.5 19.259766
       L 15.5 12.740234 C 15.5 11.776344 14.831 11 14 11 z M 18 11 C 17.169 11
       16.5 11.943594 16.5 13.115234 L 16.5 18.884766 C 16.5 20.056406 17.169 21
       18 21 C 18.831 21 19.5 20.056406 19.5 18.884766 L 19.5 13.115234 C 19.5 11.943594
       18.831 11 18 11 z "/>
   </symbol>
   <symbol id="play" viewBox="0 0 32 32">
     <title>play</title>
     <path
       d="M 16 1 A 15 15 0 0 0 1 16 A 15 15 0 0 0 16 31 A 15 15 0 0 0 31 16 A 15 15 0 0 0 16 1 z M 16 8 A 8 8 0 0 1 24 16 A 8 8 0 0 1 16 24 A 8 8 0 0 1 8 16 A 8 8 0 0 1 16 8 z M 13.111328 10.896484 L 13.111328 20.896484 L 21.589844 15.896484 L 13.111328 10.896484 z "/>
    </symbol>
    <symbol id="headphones" viewBox="0 0 32 32">
      <title>headphones</title>
      <path
        d="M 16 3.5 A 12.5 12.5 0 0 0 3.6269531 14.365234 A 1.2498034 3.8863131 0 0 0 3.25 14.175781 A 1.2498034 3.8863131 0 0 0 2 18.0625 A 1.2498034 3.8863131 0 0 0 3.25 21.947266 A 1.2498034 3.8863131 0 0 0 3.7226562 21.658203 A 1.8289806 6.0004672 0 0 0 5.1699219 24 A 1.8289806 6.0004672 0 0 0 7 17.998047 A 1.8289806 6.0004672 0 0 0 6.3535156 13.435547 A 10 10 0 0 1 16 6 A 10 10 0 0 1 25.646484 13.423828 A 1.8289807 6.0004673 0 0 0 25 18.001953 A 1.8289807 6.0004673 0 0 0 26.830078 24 A 1.8289807 6.0004673 0 0 0 28.300781 21.558594 A 1.2498034 3.8863131 0 0 0 28.75 21.824219 A 1.2498034 3.8863131 0 0 0 30 17.9375 A 1.2498034 3.8863131 0 0 0 28.75 14.052734 A 1.2498034 3.8863131 0 0 0 28.355469 14.255859 A 12.5 12.5 0 0 0 16 3.5 z "/>
     </symbol>
     <symbol id="next" viewBox="0 0 32 32">
       <title>next</title>
       <path
         d="m 3.5,6 v 20 l 9.693878,-5.587891 V 25 L 28.5,16 13.193878,7 v 4.587891 z"/>
      </symbol>
      <symbol id="previous" viewBox="0 0 32 32">
        <title>previous</title>
        <path
          d="M 28.5,26 V 6 l -9.693878,5.587891 V 7 L 3.5,16 18.806122,25 v -4.587891 z"/>
      </symbol>
      <symbol id="sound_low" viewBox="0 0 32 32">
        <title>sound_low</title>
        <path
          d="M 18.292969 5.1894531 C 12.49862 5.173143 11.659093 8.1052011 10.759766 10.046875 C 10.668645 10.018497 10.574291 10 10.476562 10 L 2.2441406 10 C 1.5553283 10 1 10.744589 1 11.669922 L 1 20.330078 C 1 21.255411 1.5553283 22 2.2441406 22 L 10.476562 22 C 10.520822 22 10.562419 21.988422 10.605469 21.982422 C 11.751734 24.144548 12.686271 26.924476 18.271484 26.949219 L 18.292969 5.1894531 z M 20.615234 10.429688 L 19.759766 10.945312 C 21.876841 14.472155 21.931661 17.579692 19.722656 20.578125 L 20.527344 21.171875 C 22.946457 17.888248 22.869353 14.18483 20.615234 10.429688 z "/>
      </symbol>
      <symbol id="sound_high" viewBox="0 0 32 32">
        <title>sound_high</title>
        <path
          d="M 18.292969 5.1894531 C 12.49862 5.173143 11.659093 8.1052011 10.759766 10.046875 C 10.668645 10.018497 10.574292 10 10.476562 10 L 2.2441406 10 C 1.5553283 10 1 10.744589 1 11.669922 L 1 20.330078 C 1 21.255411 1.5553283 22 2.2441406 22 L 10.476562 22 C 10.520823 22 10.562419 21.988422 10.605469 21.982422 C 11.751734 24.144548 12.686271 26.924476 18.271484 26.949219 L 18.292969 5.1894531 z M 26.201172 6.9746094 L 25.298828 7.4003906 C 27.969942 13.052984 28.594449 18.82721 25.130859 24.748047 L 25.994141 25.251953 C 29.629493 19.037496 28.960942 12.814816 26.201172 6.9746094 z M 23.246094 8.8144531 L 22.378906 9.3105469 C 25.305631 14.450538 24.615939 18.669004 22.197266 22.679688 L 23.052734 23.195312 C 25.593869 18.981562 26.327067 14.225338 23.246094 8.8144531 z M 20.615234 10.429688 L 19.759766 10.945312 C 21.876841 14.472156 21.931661 17.579692 19.722656 20.578125 L 20.527344 21.171875 C 22.946457 17.888248 22.869353 14.18483 20.615234 10.429688 z"/>
      </symbol>
      <symbol id="bluetooth" viewBox="0 0 32 32">
        <path
        d="M 13.5 1 C 12.669 1 12 1.892 12 3 L 12 12.417969 L 9.7617188 11.101562 C 8.8067176 10.539747 7.6987054 10.662655 7.2773438 11.378906 C 6.8559821 12.095157 7.2852332 13.125684 8.2402344 13.6875 L 11.771484 15.763672 L 8.5976562 17.605469 C 7.6393011 18.161544 7.2040375 19.187484 7.6210938 19.90625 C 8.03815 20.625016 9.1451605 20.755294 10.103516 20.199219 L 12 19.099609 L 12 29 C 12 30.108 12.669 31 13.5 31 C 13.670317 31 13.83008 30.953885 13.982422 30.884766 C 14.402256 30.792461 14.842667 30.576013 15.232422 30.226562 L 23.771484 22.570312 C 24.146789 22.233818 24.40504 21.837881 24.546875 21.445312 C 24.633481 21.270389 24.673758 21.081569 24.669922 20.884766 C 24.685853 20.54757 24.596356 20.237723 24.386719 20.003906 C 24.386719 20.003906 24.386719 20.001953 24.386719 20.001953 C 24.193529 19.701021 23.908907 19.423571 23.550781 19.212891 L 17.716797 15.78125 L 23.943359 12.169922 C 24.196065 12.023292 24.410004 11.844246 24.583984 11.646484 C 24.687024 11.582277 24.782289 11.50646 24.859375 11.410156 C 25.077639 11.13748 25.135901 10.779019 25.070312 10.400391 C 25.059992 10.213711 25.015031 10.033055 24.919922 9.8691406 C 24.905693 9.8446186 24.884943 9.8258841 24.869141 9.8027344 C 24.698863 9.4730475 24.440984 9.15255 24.101562 8.8808594 L 15.148438 1.7148438 C 14.820652 1.4524671 14.464382 1.2764739 14.117188 1.1796875 C 13.928535 1.0660758 13.721155 1 13.5 1 z M 15 5.4394531 L 21.123047 10.339844 L 15 13.890625 L 15 5.4394531 z M 15 17.664062 L 20.886719 21.125 L 15 26.404297 L 15 17.664062 z "
        />
      </symbol>
</svg>
