<?xml version="1.0" encoding="UTF-8" standalone="no"?>
<!-- Created with Inkscape (http://www.inkscape.org/) -->

<svg
   xmlns:dc="http://purl.org/dc/elements/1.1/"
   xmlns:cc="http://creativecommons.org/ns#"
   xmlns:rdf="http://www.w3.org/1999/02/22-rdf-syntax-ns#"
   xmlns:svg="http://www.w3.org/2000/svg"
   xmlns="http://www.w3.org/2000/svg"
   xmlns:sodipodi="http://sodipodi.sourceforge.net/DTD/sodipodi-0.dtd"
   xmlns:inkscape="http://www.inkscape.org/namespaces/inkscape"
   width="32px"
   height="32px"
   viewBox="0 0 32 32"
   version="1.1"
   id="SVGRoot"
   inkscape:version="0.92.2 5c3e80d, 2017-08-06"
   sodipodi:docname="bluetooth.svg">
  <sodipodi:namedview
     id="base"
     pagecolor="#ffffff"
     bordercolor="#666666"
     borderopacity="1.0"
     inkscape:pageopacity="0.0"
     inkscape:pageshadow="2"
     inkscape:zoom="16"
     inkscape:cx="15.637063"
     inkscape:cy="15.287857"
     inkscape:document-units="px"
     inkscape:current-layer="layer1"
     showgrid="false"
     inkscape:window-width="1230"
     inkscape:window-height="749"
     inkscape:window-x="0"
     inkscape:window-y="1"
     inkscape:window-maximized="0"
     inkscape:grid-bbox="true" />
  <defs
     id="defs10" />
  <metadata
     id="metadata13">
    <rdf:RDF>
      <cc:Work
         rdf:about="">
        <dc:format>image/svg+xml</dc:format>
        <dc:type
           rdf:resource="http://purl.org/dc/dcmitype/StillImage" />
        <dc:title></dc:title>
      </cc:Work>
    </rdf:RDF>
  </metadata>
  <g
     id="layer1"
     inkscape:groupmode="layer"
     inkscape:label="Layer 1">
    <path
       style="opacity:1;fill:#000000;fill-opacity:1;stroke-width:18.76535416;stroke-linecap:round;stroke-linejoin:round;stroke-miterlimit:4;stroke-dasharray:none"
       d="M 13.5 1 C 12.669 1 12 1.892 12 3 L 12 12.417969 L 9.7617188 11.101562 C 8.8067176 10.539747 7.6987054 10.662655 7.2773438 11.378906 C 6.8559821 12.095157 7.2852332 13.125684 8.2402344 13.6875 L 11.771484 15.763672 L 8.5976562 17.605469 C 7.6393011 18.161544 7.2040375 19.187484 7.6210938 19.90625 C 8.03815 20.625016 9.1451605 20.755294 10.103516 20.199219 L 12 19.099609 L 12 29 C 12 30.108 12.669 31 13.5 31 C 13.670317 31 13.83008 30.953885 13.982422 30.884766 C 14.402256 30.792461 14.842667 30.576013 15.232422 30.226562 L 23.771484 22.570312 C 24.146789 22.233818 24.40504 21.837881 24.546875 21.445312 C 24.633481 21.270389 24.673758 21.081569 24.669922 20.884766 C 24.685853 20.54757 24.596356 20.237723 24.386719 20.003906 C 24.386719 20.003906 24.386719 20.001953 24.386719 20.001953 C 24.193529 19.701021 23.908907 19.423571 23.550781 19.212891 L 17.716797 15.78125 L 23.943359 12.169922 C 24.196065 12.023292 24.410004 11.844246 24.583984 11.646484 C 24.687024 11.582277 24.782289 11.50646 24.859375 11.410156 C 25.077639 11.13748 25.135901 10.779019 25.070312 10.400391 C 25.059992 10.213711 25.015031 10.033055 24.919922 9.8691406 C 24.905693 9.8446186 24.884943 9.8258841 24.869141 9.8027344 C 24.698863 9.4730475 24.440984 9.15255 24.101562 8.8808594 L 15.148438 1.7148438 C 14.820652 1.4524671 14.464382 1.2764739 14.117188 1.1796875 C 13.928535 1.0660758 13.721155 1 13.5 1 z M 15 5.4394531 L 21.123047 10.339844 L 15 13.890625 L 15 5.4394531 z M 15 17.664062 L 20.886719 21.125 L 15 26.404297 L 15 17.664062 z "
       id="rect26" />
  </g>
</svg>
