<?xml version="1.0" encoding="UTF-8" standalone="no"?>
<!-- Created with Inkscape (http://www.inkscape.org/) -->

<svg
   xmlns:dc="http://purl.org/dc/elements/1.1/"
   xmlns:cc="http://creativecommons.org/ns#"
   xmlns:rdf="http://www.w3.org/1999/02/22-rdf-syntax-ns#"
   xmlns:svg="http://www.w3.org/2000/svg"
   xmlns="http://www.w3.org/2000/svg"
   xmlns:sodipodi="http://sodipodi.sourceforge.net/DTD/sodipodi-0.dtd"
   xmlns:inkscape="http://www.inkscape.org/namespaces/inkscape"
   width="32px"
   height="32px"
   viewBox="0 0 32 32"
   version="1.1"
   id="SVGRoot"
   inkscape:version="0.92.2 5c3e80d, 2017-08-06"
   sodipodi:docname="headphones.svg">
  <sodipodi:namedview
     id="base"
     pagecolor="#ffffff"
     bordercolor="#666666"
     borderopacity="1.0"
     inkscape:pageopacity="0.0"
     inkscape:pageshadow="2"
     inkscape:zoom="16.716004"
     inkscape:cx="18.819095"
     inkscape:cy="16.300771"
     inkscape:document-units="px"
     inkscape:current-layer="layer1"
     showgrid="false"
     inkscape:window-width="1277"
     inkscape:window-height="804"
     inkscape:window-x="0"
     inkscape:window-y="1"
     inkscape:window-maximized="0"
     inkscape:grid-bbox="true" />
  <defs
     id="defs10" />
  <metadata
     id="metadata13">
    <rdf:RDF>
      <cc:Work
         rdf:about="">
        <dc:format>image/svg+xml</dc:format>
        <dc:type
           rdf:resource="http://purl.org/dc/dcmitype/StillImage" />
        <dc:title></dc:title>
      </cc:Work>
    </rdf:RDF>
  </metadata>
  <g
     id="layer1"
     inkscape:groupmode="layer"
     inkscape:label="Layer 1">
    <ellipse
       style="opacity:1;fill:#000000;fill-opacity:1;stroke-width:18.88337517;stroke-linecap:round;stroke-linejoin:round;stroke-miterlimit:4;stroke-dasharray:none"
       id="path37"
       cx="16"
       cy="16"
       r="15" />
    <path
       style="opacity:1;fill:#000000;fill-opacity:1;stroke-width:20.79551125;stroke-linecap:round;stroke-linejoin:round;stroke-miterlimit:4;stroke-dasharray:none"
       d="M 16 3.5 A 12.5 12.5 0 0 0 3.6269531 14.365234 A 1.2498034 3.8863131 0 0 0 3.25 14.175781 A 1.2498034 3.8863131 0 0 0 2 18.0625 A 1.2498034 3.8863131 0 0 0 3.25 21.947266 A 1.2498034 3.8863131 0 0 0 3.7226562 21.658203 A 1.8289806 6.0004672 0 0 0 5.1699219 24 A 1.8289806 6.0004672 0 0 0 7 17.998047 A 1.8289806 6.0004672 0 0 0 6.3535156 13.435547 A 10 10 0 0 1 16 6 A 10 10 0 0 1 25.646484 13.423828 A 1.8289807 6.0004673 0 0 0 25 18.001953 A 1.8289807 6.0004673 0 0 0 26.830078 24 A 1.8289807 6.0004673 0 0 0 28.300781 21.558594 A 1.2498034 3.8863131 0 0 0 28.75 21.824219 A 1.2498034 3.8863131 0 0 0 30 17.9375 A 1.2498034 3.8863131 0 0 0 28.75 14.052734 A 1.2498034 3.8863131 0 0 0 28.355469 14.255859 A 12.5 12.5 0 0 0 16 3.5 z "
       id="path52" />
  </g>
</svg>
