<svg xmlns="http://www.w3.org/2000/svg">
    <path
       d="M 16 1 A 15 15 0 0 0 1 16 A 15 15 0 0 0 16 31 A 15 15 0 0 0 31 16
       A 15 15 0 0 0 16 1 z M 16 8 A 8 8 0 0 1 24 16 A 8 8 0 0 1 16 24
       A 8 8 0 0 1 8 16 A 8 8 0 0 1 16 8 z M 14 11 C 13.169 11 12.5 11.776344 12.5 12.740234
       L 12.5 19.259766 C 12.5 20.223656 13.169 21 14 21 C 14.831 21 15.5 20.223656 15.5 19.259766
       L 15.5 12.740234 C 15.5 11.776344 14.831 11 14 11 z M 18 11 C 17.169 11
       16.5 11.943594 16.5 13.115234 L 16.5 18.884766 C 16.5 20.056406 17.169 21
       18 21 C 18.831 21 19.5 20.056406 19.5 18.884766 L 19.5 13.115234 C 19.5 11.943594
       18.831 11 18 11 z "
       id="path5276" />
</svg>
